<svg version="1.2" xmlns="http://www.w3.org/2000/svg" viewBox="0 0 187 31" width="187" height="31">
	<title>logo-svg</title>
	<style>
		.s0 { fill: #ffffff } 
	</style>
	<path id="Layer" fill-rule="evenodd" class="s0" d="m38.3 2l-5.6 28 18.1-27.9 6.4-0.1 6.9 28.1h-6.5l-1.3-6h-13.1l-3.6 6h-13l3.3-16.7-10.7 13.7h-2.9l-5.7-13.9-3.4 16.9h-6.1l5.6-28.1 5.3 0.1 7 17.4 13.7-17.4zm16.9 17l-2.3-10.8-6.6 10.8zm30.2-3.5h5.9l-2.3 11.5c-2.8 2.2-6.7 3.4-10.7 3.4-8.5 0-13.9-4.9-13.9-12.1 0-9.6 7-16.8 17.7-16.8 5.3 0 9.2 1.7 11.6 4.8l-4.6 3.8c-1.9-2.2-4.2-3.1-7.3-3.1-6.6 0-10.8 4.7-10.8 10.9 0 4.2 2.8 7 8.1 7 1.7 0 3.2-0.3 4.7-1zm30.1 2.1c0 7.2-5 12.5-11.9 12.5-4.4 0-7.3-2-8.3-5.5l-1 5.4h-2l6-29.7h2l-2.6 12.7c2-2.6 5-4.1 8.7-4.1 5.4 0 9.1 3.3 9.1 8.7zm-2.1 0.1c0-4.4-2.7-7-7.4-7-5.6 0-9.8 4.5-9.8 10.6 0 4.5 2.7 7 7.5 7 5.6 0 9.7-4.4 9.7-10.6zm27.3-8.6l-4.1 20.9h-2l0.8-4.1c-2 2.6-5.1 4.2-8.8 4.2-5.4 0-9-3.3-9-8.6 0-7.3 5-12.6 11.8-12.6 4.4 0 7.3 2 8.3 5.4l1-5.2zm-3.9 8.6c0-4.4-2.7-7-7.4-7-5.6 0-9.8 4.5-9.8 10.6 0 4.5 2.7 7 7.4 7 5.7 0 9.8-4.4 9.8-10.6zm26.5-2.1q0 1.1-0.2 2.3l-2.4 12.1h-2l2.4-12.1c0.1-0.7 0.2-1.4 0.2-2 0-3.3-2-5.2-5.9-5.2-4.8 0-8.1 2.7-9.2 7.9l-2.2 11.4h-2l4.1-20.9h2l-0.8 3.9c2-2.8 5.1-4.1 8.6-4.1 4.8 0 7.4 2.6 7.4 6.7zm13.9 2l7.5 12.4h-2.3l-6.8-11.2-6.5 5-1.2 6.2h-2l5.9-29.7h2l-4.2 20.9 15.6-12.1h2.9z"/>
</svg>